<?xml version="1.0" encoding="iso-8859-1"?>
<!-- Generator: Adobe Illustrator 16.0.0, SVG Export Plug-In . SVG Version: 6.00 Build 0)  -->
<!DOCTYPE svg PUBLIC "-//W3C//DTD SVG 1.1//EN" "http://www.w3.org/Graphics/SVG/1.1/DTD/svg11.dtd">
<svg version="1.1" id="Capa_1" xmlns="http://www.w3.org/2000/svg" xmlns:xlink="http://www.w3.org/1999/xlink" x="0px" y="0px"
	 width="437.549px" height="437.549px" viewBox="0 0 437.549 437.549" style="enable-background:new 0 0 437.549 437.549;"
	 xml:space="preserve">
<g>
	<g>
		<path d="M203.909,287.048h18.674c0.68-0.875,1.405-1.719,2.194-2.51l35.185-35.184h-56.053v-60.689H320.65l45.691-45.691
			c1.094-1.094,2.268-2.072,3.504-2.947l0.004-69.059c0-10.391-8.453-18.846-18.846-18.846H18.848C8.455,52.122,0,60.577,0,70.968
			v98.383c0,0.076,0.002,0.152,0.006,0.23C0.002,169.661,0,169.739,0,169.817v196.766c0,10.391,8.455,18.844,18.848,18.844h165.941
			c0.047,0,0.09-0.006,0.137-0.006c0.045,0,0.09,0.006,0.135,0.006h33.168c-2.098-1.184-4.131-2.574-5.799-4.402
			c-9.781-10.721-8.521-33.287-8.521-33.287V287.048L203.909,287.048z M165.946,347.737H37.694v-60.688h128.252V347.737
			L165.946,347.737z M165.946,249.354H37.694v-60.688h128.252V249.354L165.946,249.354z"/>
		<path d="M435.582,203.478l-46.361-46.361c-2.623-2.625-6.877-2.625-9.5,0l-31.131,31.129l55.861,55.862l31.131-31.13
			C438.205,210.355,438.205,206.101,435.582,203.478z"/>
		<path d="M238.163,298.673c-0.923,0.922-1.556,2.092-1.824,3.367l-12.351,58.713c-0.469,2.221,0.218,4.527,1.822,6.133
			c1.605,1.605,3.912,2.291,6.133,1.824l58.713-12.352c1.275-0.269,2.447-0.902,3.367-1.824l93.328-93.324l-55.863-55.863
			L238.163,298.673z"/>
		<path d="M295.545,375.931l-45.146,9.496h100.607c10.393,0,18.846-8.453,18.846-18.846V307.76l-60.918,60.917
			C305.266,372.349,300.633,374.858,295.545,375.931z"/>
	</g>
</g>
<g>
</g>
<g>
</g>
<g>
</g>
<g>
</g>
<g>
</g>
<g>
</g>
<g>
</g>
<g>
</g>
<g>
</g>
<g>
</g>
<g>
</g>
<g>
</g>
<g>
</g>
<g>
</g>
<g>
</g>
</svg>
